<svg xmlns="http://www.w3.org/2000/svg" viewBox="13 103.5 1893.5 706.2" enable-background="new 13 103.5 1893.5 706.2"><style type="text/css">.bb-side { display: none; } .bb-bottom { display: none; } @media screen and (min-width: 100px) { .bb-bottom { display: block; } @media screen and (min-width: 150px) { .bb-bottom { display: none; } .bb-side { display: block; } @media screen and (min-width: 250px) { .bb-side { fill: #1A374D; } }</style><path fill="#1A374D" class="b2" d="M436 346.5v-180c0-33.3-29.7-63-63-63s-63 29.7-63 63v189l108 135-63 141.3c130.5 125.1 315 25.2 315-123.3 0-119.7-120.6-196.2-234-162zm54 225c-35.1 0-63-27.9-63-63s27.9-63 63-63 63 27.9 63 63-27.9 63-63 63z"/><path class="b1" d="M184 346.5v-180c0-33.3-29.7-63-63-63s-63 29.7-63 63v369c0 73.8 82.8 153 180 153s180-82.8 180-180c0-119.7-120.6-196.2-234-162zm54 225c-35.1 0-63-27.9-63-63s27.9-63 63-63 63 27.9 63 63-27.9 63-63 63z"/><g class="bb-side"><path d="M776.2 488h-24.1c-3.5 0-6-.8-7.4-2.3-1.5-1.6-2.2-4-2.2-7.4v-59.3c0-3.5.8-6 2.3-7.5 1.5-1.5 4-2.3 7.4-2.3h25.5c3.8 0 7 .2 9.8.7 2.8.5 5.2 1.4 7.4 2.7 1.9 1.1 3.5 2.5 4.9 4.2 1.4 1.7 2.5 3.6 3.3 5.6s1.1 4.2 1.1 6.5c0 7.9-3.9 13.6-11.8 17.3 10.3 3.3 15.5 9.7 15.5 19.2 0 4.4-1.1 8.4-3.4 11.9s-5.3 6.1-9.1 7.8c-2.4 1-5.2 1.7-8.3 2.1-3.1.6-6.7.8-10.9.8zm-17.8-66.8v20.4h14.6c4 0 7-.4 9.2-1.1 2.2-.8 3.8-2.2 5-4.3.9-1.5 1.3-3.2 1.3-5 0-4-1.4-6.6-4.2-7.9-2.8-1.3-7.1-2-12.9-2h-13zm16.6 31.8h-16.6v23h17.1c10.8 0 16.2-3.9 16.2-11.7 0-4-1.4-6.9-4.2-8.6-2.7-1.8-6.9-2.7-12.5-2.7zm68.1 1.3h-5.6v25.3c0 3.3-.7 5.8-2.2 7.4-1.5 1.6-3.4 2.4-5.7 2.4-2.5 0-4.5-.8-5.9-2.5s-2.1-4.1-2.1-7.3v-60.6c0-3.4.8-5.9 2.3-7.5 1.5-1.5 4-2.3 7.5-2.3h25.9c3.6 0 6.6.2 9.2.5 2.5.3 4.8.9 6.9 1.9 2.5 1 4.7 2.5 6.6 4.5 1.9 1.9 3.3 4.2 4.3 6.7 1 2.6 1.5 5.3 1.5 8.1 0 5.9-1.7 10.6-5 14.1s-8.3 6-15.1 7.5c2.8 1.5 5.5 3.7 8.1 6.7 2.6 2.9 4.9 6.1 6.9 9.4 2 3.3 3.6 6.3 4.7 9s1.7 4.5 1.7 5.5-.3 2.1-1 3.1-1.6 1.8-2.7 2.4c-1.1.6-2.5.9-4 .9-1.8 0-3.3-.4-4.5-1.3-1.2-.8-2.3-1.9-3.1-3.2-.9-1.3-2.1-3.2-3.6-5.7l-6.4-10.6c-2.3-3.9-4.3-6.9-6.1-8.9-1.8-2-3.6-3.4-5.5-4.2-1.9-.9-4.2-1.3-7.1-1.3zm9.2-33.1h-14.7v21.6h14.3c3.8 0 7.1-.3 9.7-1 2.6-.7 4.6-1.8 6-3.4 1.4-1.6 2.1-3.8 2.1-6.6 0-2.2-.6-4.1-1.7-5.8-1.1-1.7-2.7-2.9-4.6-3.7-2-.7-5.6-1.1-11.1-1.1zm100.4.4h-35.9v19.3h33.1c2.4 0 4.3.5 5.5 1.6 1.2 1.1 1.8 2.5 1.8 4.3 0 1.8-.6 3.2-1.8 4.4-1.2 1.1-3 1.7-5.5 1.7h-33.1v22.4h37.2c2.5 0 4.4.6 5.7 1.7 1.3 1.2 1.9 2.7 1.9 4.6 0 1.9-.6 3.4-1.9 4.5-1.3 1.2-3.2 1.7-5.7 1.7h-43.3c-3.5 0-6-.8-7.5-2.3-1.5-1.5-2.3-4-2.3-7.5v-59c0-2.3.3-4.2 1-5.6.7-1.4 1.7-2.5 3.2-3.2 1.4-.7 3.3-1 5.6-1h42.1c2.5 0 4.4.6 5.7 1.7 1.2 1.1 1.9 2.6 1.9 4.4 0 1.9-.6 3.4-1.9 4.5-1.4 1.2-3.2 1.8-5.8 1.8zm71.9 57.5l-3.8-9.9h-32l-3.8 10.1c-1.5 3.9-2.7 6.6-3.8 8-1 1.4-2.7 2.1-5.1 2.1-2 0-3.8-.7-5.3-2.2-1.5-1.5-2.3-3.1-2.3-5 0-1.1.2-2.2.5-3.3.4-1.1.9-2.7 1.8-4.8l20.1-51.1c.6-1.5 1.3-3.2 2.1-5.3.8-2.1 1.7-3.8 2.6-5.1.9-1.4 2.1-2.5 3.6-3.3 1.5-.8 3.3-1.3 5.5-1.3s4.1.4 5.6 1.3c1.5.8 2.7 1.9 3.6 3.2.9 1.3 1.7 2.7 2.3 4.3.6 1.5 1.4 3.6 2.4 6.1l20.6 50.8c1.6 3.9 2.4 6.7 2.4 8.4 0 1.8-.8 3.5-2.3 5-1.5 1.5-3.4 2.3-5.5 2.3-1.3 0-2.3-.2-3.2-.7-.9-.4-1.6-1.1-2.3-1.8-.6-.8-1.3-2-2-3.5-.6-1.7-1.2-3.1-1.7-4.3zm-31.6-21.9h23.5l-11.9-32.5-11.6 32.5zm76.4-39.6v27.6l31.3-32.7c1.5-1.6 2.8-2.7 3.8-3.5 1.1-.8 2.5-1.1 4.2-1.1 2.3 0 4.1.7 5.6 2 1.4 1.3 2.1 3 2.1 4.9 0 2.3-1.2 4.6-3.6 6.9l-19.4 18.4 22.3 32c1.6 2.2 2.8 4.2 3.5 5.8.8 1.7 1.2 3.3 1.2 4.9 0 1.8-.7 3.3-2.1 4.6-1.4 1.3-3.2 1.9-5.6 1.9-2.2 0-4-.5-5.4-1.4-1.4-.9-2.6-2.2-3.5-3.8-1-1.6-1.8-3-2.6-4.3l-18.9-29-13.1 12.5v16.3c0 3.3-.8 5.7-2.3 7.3-1.5 1.6-3.4 2.4-5.8 2.4-1.4 0-2.7-.4-3.9-1.1-1.3-.7-2.2-1.7-2.9-2.9-.5-1-.8-2.2-.9-3.5-.1-1.3-.2-3.2-.2-5.7v-58.5c0-3.2.7-5.6 2.1-7.3 1.4-1.6 3.3-2.4 5.8-2.4 2.4 0 4.3.8 5.8 2.4 1.7 1.6 2.5 4 2.5 7.3zm66 62v-62c0-3.2.7-5.6 2.2-7.3 1.5-1.6 3.4-2.4 5.7-2.4 2.4 0 4.3.8 5.8 2.4 1.5 1.6 2.2 4 2.2 7.3v62c0 3.3-.7 5.7-2.2 7.3-1.5 1.6-3.4 2.4-5.8 2.4-2.3 0-4.2-.8-5.7-2.4-1.5-1.6-2.2-4.1-2.2-7.3zm54.6-62.1l30.7 46.4v-46.9c0-3 .7-5.3 2-6.8s3.1-2.3 5.3-2.3c2.3 0 4.1.8 5.4 2.3 1.3 1.5 2 3.8 2 6.8v62c0 6.9-2.9 10.4-8.6 10.4-1.4 0-2.7-.2-3.9-.6-1.1-.4-2.2-1.1-3.2-2-1-.9-1.9-1.9-2.8-3.1-.9-1.2-1.7-2.4-2.6-3.7l-29.9-45.9v46.1c0 3-.7 5.3-2.1 6.8s-3.2 2.3-5.4 2.3c-2.3 0-4.1-.8-5.4-2.3-1.4-1.6-2-3.8-2-6.8v-60.7c0-2.6.3-4.6.9-6.1.7-1.6 1.8-2.9 3.4-3.9 1.6-1 3.3-1.5 5.1-1.5 1.4 0 2.7.2 3.7.7 1 .5 1.9 1.1 2.7 1.9.8.8 1.6 1.8 2.4 3.1.6 1.1 1.4 2.4 2.3 3.8zm134.7 38.5v15.1c0 2-.2 3.6-.6 4.8-.4 1.2-1.1 2.3-2.2 3.2-1.1 1-2.4 1.9-4.1 2.8-4.8 2.6-9.3 4.5-13.8 5.6s-9.2 1.8-14.4 1.8c-6.1 0-11.6-.9-16.5-2.8-5-1.9-9.2-4.6-12.7-8.1s-6.2-7.8-8.1-12.9c-1.9-5-2.8-10.7-2.8-16.9 0-6.1.9-11.7 2.7-16.8 1.8-5.1 4.5-9.4 8.1-12.9s7.9-6.3 12.9-8.1c5.1-1.9 10.8-2.8 17.3-2.8 5.3 0 10 .7 14.1 2.1s7.4 3.2 9.9 5.3c2.5 2.1 4.5 4.4 5.7 6.8 1.3 2.4 1.9 4.5 1.9 6.4 0 2-.7 3.7-2.2 5.1-1.5 1.4-3.3 2.1-5.3 2.1-1.1 0-2.2-.3-3.3-.8-1.1-.5-1.9-1.3-2.7-2.3-2-3.1-3.6-5.4-5-7-1.4-1.6-3.2-2.9-5.5-4s-5.3-1.6-8.8-1.6c-3.7 0-7 .6-9.9 1.9-2.9 1.3-5.4 3.1-7.4 5.5-2.1 2.4-3.6 5.4-4.7 8.9s-1.6 7.4-1.6 11.7c0 9.2 2.1 16.3 6.4 21.3 4.2 5 10.2 7.5 17.8 7.5 3.7 0 7.2-.5 10.4-1.5s6.5-2.3 9.9-4.1v-12.8h-12.4c-3 0-5.2-.4-6.7-1.3s-2.3-2.4-2.3-4.6c0-1.8.6-3.2 1.9-4.4 1.3-1.1 3-1.7 5.2-1.7h18.1c2.2 0 4.1.2 5.6.6 1.5.4 2.8 1.3 3.7 2.6.9 1.5 1.4 3.6 1.4 6.3zm76.3 32h-24.1c-3.5 0-6-.8-7.4-2.3-1.5-1.6-2.2-4-2.2-7.4v-59.3c0-3.5.8-6 2.3-7.5 1.5-1.5 4-2.3 7.4-2.3h25.5c3.8 0 7 .2 9.8.7 2.8.5 5.2 1.4 7.4 2.7 1.9 1.1 3.5 2.5 4.9 4.2 1.4 1.7 2.5 3.6 3.3 5.6s1.1 4.2 1.1 6.5c0 7.9-3.9 13.6-11.8 17.3 10.3 3.3 15.5 9.7 15.5 19.2 0 4.4-1.1 8.4-3.4 11.9s-5.3 6.1-9.1 7.8c-2.4 1-5.2 1.7-8.3 2.1-3.1.6-6.8.8-10.9.8zm-17.8-66.8v20.4h14.6c4 0 7-.4 9.2-1.1 2.2-.8 3.8-2.2 5-4.3.9-1.5 1.3-3.2 1.3-5 0-4-1.4-6.6-4.2-7.9-2.8-1.3-7.1-2-12.9-2h-13zm0 54.8h17.1c10.8 0 16.2-3.9 16.2-11.7 0-4-1.4-6.9-4.2-8.6-2.8-1.8-7-2.7-12.5-2.7h-16.6v23"/><path d="M1481.1 407.9c8.2 0 15.2 1.7 21 5 5.9 3.3 10.3 8 13.3 14.1s4.5 13.3 4.5 21.5c0 6.1-.8 11.6-2.5 16.6-1.6 5-4.1 9.3-7.4 12.9-3.3 3.7-7.3 6.4-12.1 8.4-4.8 1.9-10.3 2.9-16.5 2.9-6.2 0-11.7-1-16.5-3-4.9-2-8.9-4.8-12.2-8.4-3.3-3.6-5.7-8-7.4-13.1-1.7-5.1-2.5-10.6-2.5-16.5 0-6.1.9-11.6 2.6-16.7 1.7-5 4.3-9.3 7.5-12.9 3.3-3.5 7.3-6.3 12-8.1 4.8-1.7 10.2-2.7 16.2-2.7zm22.7 40.5c0-5.8-.9-10.8-2.8-15-1.9-4.2-4.5-7.4-8-9.6-3.5-2.2-7.4-3.2-11.9-3.2-3.2 0-6.1.6-8.8 1.8-2.7 1.2-5 2.9-7 5.2-2 2.3-3.5 5.2-4.6 8.8-1.1 3.6-1.7 7.6-1.7 12 0 4.5.6 8.5 1.7 12.1 1.1 3.6 2.7 6.6 4.8 9 2.1 2.4 4.4 4.2 7.1 5.3 2.7 1.2 5.6 1.8 8.8 1.8 4.1 0 7.8-1 11.3-3.1 3.4-2 6.1-5.2 8.2-9.5 1.9-4.1 2.9-9.4 2.9-15.6zm51.2 5.9h-5.6v25.3c0 3.3-.7 5.8-2.2 7.4-1.5 1.6-3.4 2.4-5.7 2.4-2.5 0-4.5-.8-5.9-2.5s-2.1-4.1-2.1-7.3v-60.6c0-3.4.8-5.9 2.3-7.5 1.5-1.5 4-2.3 7.5-2.3h25.9c3.6 0 6.6.2 9.2.5 2.5.3 4.8.9 6.9 1.9 2.5 1 4.7 2.5 6.6 4.5 1.9 1.9 3.3 4.2 4.3 6.7 1 2.6 1.5 5.3 1.5 8.1 0 5.9-1.7 10.6-5 14.1s-8.3 6-15.1 7.5c2.8 1.5 5.5 3.7 8.1 6.7 2.6 2.9 4.9 6.1 6.9 9.4 2 3.3 3.6 6.3 4.7 9s1.7 4.5 1.7 5.5-.3 2.1-1 3.1-1.6 1.8-2.7 2.4c-1.1.6-2.5.9-4 .9-1.8 0-3.3-.4-4.5-1.3-1.2-.8-2.3-1.9-3.1-3.2-.9-1.3-2.1-3.2-3.6-5.7l-6.4-10.6c-2.3-3.9-4.3-6.9-6.1-8.9-1.8-2-3.6-3.4-5.5-4.2-1.9-.9-4.2-1.3-7.1-1.3zm9.2-33.1h-14.7v21.6h14.3c3.8 0 7.1-.3 9.7-1 2.6-.7 4.6-1.8 6-3.4 1.4-1.6 2.1-3.8 2.1-6.6 0-2.2-.6-4.1-1.7-5.8-1.1-1.7-2.7-2.9-4.6-3.7-2-.7-5.7-1.1-11.1-1.1zm58.4-11.9h20.8c5.4 0 10 .5 13.9 1.5 3.9 1 7.4 2.9 10.5 5.6 8.2 7 12.3 17.7 12.3 32 0 4.7-.4 9-1.2 12.9-.8 3.9-2.1 7.4-3.8 10.6-1.7 3.1-3.9 5.9-6.6 8.4-2.1 1.9-4.4 3.4-6.9 4.6-2.5 1.1-5.2 2-8.1 2.4-2.9.5-6.1.7-9.7.7h-20.8c-2.9 0-5.1-.4-6.6-1.3s-2.4-2.1-2.9-3.7c-.4-1.6-.7-3.7-.7-6.2v-57.8c0-3.4.8-5.9 2.3-7.5 1.6-1.5 4.1-2.2 7.5-2.2zm6.2 12.6v53.4h12.1c2.6 0 4.7-.1 6.2-.2s3.1-.5 4.7-1.1c1.6-.6 3-1.4 4.2-2.4 5.3-4.5 8-12.3 8-23.3 0-7.8-1.2-13.6-3.5-17.5-2.3-3.9-5.2-6.3-8.7-7.4s-7.6-1.6-12.5-1.6h-10.5zm117.2-.3h-35.9v19.3h33.1c2.4 0 4.3.5 5.5 1.6 1.2 1.1 1.8 2.5 1.8 4.3 0 1.8-.6 3.2-1.8 4.4-1.2 1.1-3 1.7-5.5 1.7h-33.1v22.4h37.2c2.5 0 4.4.6 5.7 1.7 1.3 1.2 1.9 2.7 1.9 4.6 0 1.9-.6 3.4-1.9 4.5-1.3 1.2-3.2 1.7-5.7 1.7h-43.3c-3.5 0-6-.8-7.5-2.3-1.5-1.5-2.3-4-2.3-7.5v-59c0-2.3.3-4.2 1-5.6.7-1.4 1.7-2.5 3.2-3.2 1.4-.7 3.3-1 5.6-1h42.1c2.5 0 4.4.6 5.7 1.7 1.2 1.1 1.9 2.6 1.9 4.4 0 1.9-.6 3.4-1.9 4.5-1.3 1.2-3.2 1.8-5.8 1.8zm42.9 32.7h-5.6v25.3c0 3.3-.7 5.8-2.2 7.4-1.5 1.6-3.4 2.4-5.7 2.4-2.5 0-4.5-.8-5.9-2.5s-2.1-4.1-2.1-7.3v-60.6c0-3.4.8-5.9 2.3-7.5 1.5-1.5 4-2.3 7.5-2.3h25.9c3.6 0 6.6.2 9.2.5 2.5.3 4.8.9 6.9 1.9 2.5 1 4.7 2.5 6.6 4.5 1.9 1.9 3.3 4.2 4.3 6.7 1 2.6 1.5 5.3 1.5 8.1 0 5.9-1.7 10.6-5 14.1s-8.3 6-15.1 7.5c2.8 1.5 5.5 3.7 8.1 6.7 2.6 2.9 4.9 6.1 6.9 9.4 2 3.3 3.6 6.3 4.7 9s1.7 4.5 1.7 5.5-.3 2.1-1 3.1-1.6 1.8-2.7 2.4c-1.1.6-2.5.9-4 .9-1.8 0-3.3-.4-4.5-1.3-1.2-.8-2.3-1.9-3.1-3.2-.9-1.3-2.1-3.2-3.6-5.7l-6.4-10.6c-2.3-3.9-4.3-6.9-6.1-8.9-1.8-2-3.6-3.4-5.5-4.2-1.9-.9-4.2-1.3-7.1-1.3zm9.2-33.1h-14.7v21.6h14.3c3.8 0 7.1-.3 9.7-1 2.6-.7 4.6-1.8 6-3.4 1.4-1.6 2.1-3.8 2.1-6.6 0-2.2-.6-4.1-1.7-5.8-1.1-1.7-2.7-2.9-4.6-3.7-2-.7-5.7-1.1-11.1-1.1zm108.4 43.2c0 4.8-1.2 9-3.7 12.8-2.5 3.8-6 6.8-10.8 8.9s-10.3 3.2-16.8 3.2c-7.8 0-14.2-1.5-19.2-4.4-3.6-2.1-6.5-4.9-8.7-8.5-2.2-3.5-3.4-7-3.4-10.3 0-1.9.7-3.6 2-5s3.1-2.1 5.1-2.1c1.7 0 3.1.5 4.3 1.6 1.2 1.1 2.2 2.7 3 4.8 1 2.5 2.1 4.6 3.2 6.3 1.2 1.7 2.8 3.1 4.9 4.2 2.1 1.1 4.9 1.6 8.3 1.6 4.7 0 8.6-1.1 11.5-3.3 3-2.2 4.4-4.9 4.4-8.2 0-2.6-.8-4.7-2.4-6.4-1.6-1.6-3.7-2.9-6.2-3.7-2.5-.9-5.9-1.8-10.1-2.7-5.7-1.3-10.4-2.9-14.2-4.6-3.8-1.8-6.8-4.2-9.1-7.3-2.2-3.1-3.4-6.9-3.4-11.4 0-4.3 1.2-8.2 3.5-11.5 2.4-3.4 5.8-6 10.3-7.8 4.5-1.8 9.7-2.7 15.8-2.7 4.8 0 9 .6 12.5 1.8 3.5 1.2 6.5 2.8 8.8 4.8 2.3 2 4 4.1 5.1 6.3 1.1 2.2 1.6 4.3 1.6 6.4 0 1.9-.7 3.6-2 5.1-1.3 1.5-3 2.3-5 2.3-1.8 0-3.2-.5-4.2-1.4-.9-.9-2-2.4-3.1-4.5-1.4-3-3.2-5.3-5.2-7-2-1.7-5.2-2.5-9.7-2.5-4.1 0-7.4.9-10 2.7-2.5 1.8-3.8 4-3.8 6.5 0 1.6.4 2.9 1.3 4.1.9 1.1 2 2.1 3.5 3 1.5.8 3 1.5 4.6 1.9 1.5.5 4.1 1.1 7.6 2 4.4 1 8.5 2.2 12.1 3.4 3.6 1.3 6.7 2.8 9.2 4.6 2.5 1.8 4.5 4.1 5.9 6.8 1.7 2.8 2.5 6.2 2.5 10.2z"/></g><g class="bb-bottom"><path d="M33.7 808.8h-14.8c-2.1 0-3.7-.5-4.6-1.4-.9-1-1.4-2.5-1.4-4.6v-36.4c0-2.1.5-3.7 1.4-4.6.9-.9 2.5-1.4 4.5-1.4h15.7c2.3 0 4.3.1 6 .4 1.7.3 3.2.8 4.6 1.7 1.1.7 2.2 1.5 3 2.6.9 1 1.6 2.2 2 3.5.5 1.3.7 2.6.7 4 0 4.8-2.4 8.4-7.3 10.6 6.4 2 9.6 6 9.6 11.8 0 2.7-.7 5.2-2.1 7.3-1.4 2.2-3.3 3.8-5.6 4.8-1.5.6-3.2 1.1-5.1 1.3-1.8.3-4 .4-6.6.4zm-10.9-41.1v12.5h9c2.4 0 4.3-.2 5.7-.7 1.3-.5 2.4-1.3 3.1-2.6.6-.9.8-2 .8-3.1 0-2.4-.9-4.1-2.6-4.9-1.7-.8-4.4-1.2-8-1.2h-8zm10.2 19.6h-10.2v14.2h10.5c6.6 0 10-2.4 10-7.2 0-2.4-.9-4.2-2.6-5.3-1.7-1.1-4.3-1.7-7.7-1.7zm41.9.8h-3.4v15.6c0 2-.5 3.6-1.4 4.5-.9 1-2.1 1.5-3.5 1.5-1.6 0-2.8-.5-3.6-1.5s-1.3-2.5-1.3-4.5v-37.3c0-2.1.5-3.6 1.4-4.6.9-.9 2.5-1.4 4.6-1.4h16c2.2 0 4.1.1 5.7.3 1.6.2 3 .6 4.2 1.1 1.5.6 2.9 1.6 4 2.7 1.2 1.2 2.1 2.6 2.7 4.1.6 1.6.9 3.2.9 5 0 3.6-1 6.5-3.1 8.7-2 2.2-5.1 3.7-9.3 4.6 1.7.9 3.4 2.3 5 4.1 1.6 1.8 3 3.7 4.2 5.8 1.2 2 2.2 3.9 2.9 5.5.7 1.6 1 2.8 1 3.4 0 .6-.2 1.3-.6 1.9-.4.6-1 1.1-1.7 1.5-.7.4-1.5.5-2.4.5-1.1 0-2-.3-2.8-.8-.7-.5-1.4-1.2-1.9-2s-1.3-2-2.2-3.5l-3.9-6.5c-1.4-2.4-2.7-4.2-3.8-5.5-1.1-1.3-2.2-2.1-3.4-2.6-1.1-.4-2.5-.6-4.3-.6zm5.7-20.4h-9.1v13.3h8.8c2.4 0 4.3-.2 6-.6 1.6-.4 2.8-1.1 3.7-2.1.8-1 1.3-2.3 1.3-4.1 0-1.3-.3-2.5-1-3.6-.7-1-1.6-1.8-2.8-2.3-1.3-.3-3.6-.6-6.9-.6zm61.8.2h-22.1v11.9h20.4c1.5 0 2.6.3 3.4 1 .7.7 1.1 1.6 1.1 2.7s-.4 2-1.1 2.7c-.7.7-1.9 1-3.4 1h-20.4v13.8h22.9c1.5 0 2.7.4 3.5 1.1.8.7 1.2 1.7 1.2 2.9 0 1.1-.4 2.1-1.2 2.8-.8.7-1.9 1.1-3.5 1.1h-26.7c-2.1 0-3.7-.5-4.6-1.4-.9-.9-1.4-2.5-1.4-4.6v-36.4c0-1.4.2-2.6.6-3.5.4-.9 1.1-1.5 2-2 .9-.4 2-.6 3.4-.6h25.9c1.6 0 2.7.3 3.5 1 .8.7 1.1 1.6 1.1 2.7s-.4 2.1-1.1 2.8c-.8.7-2 1-3.5 1zm44.2 35.5l-2.3-6.1h-19.7l-2.3 6.2c-.9 2.4-1.7 4.1-2.3 4.9-.6.8-1.7 1.3-3.1 1.3-1.2 0-2.3-.5-3.3-1.4-.9-.9-1.4-1.9-1.4-3.1 0-.7.1-1.3.3-2 .2-.7.6-1.7 1.1-2.9l12.4-31.5c.4-.9.8-2 1.3-3.3.5-1.3 1-2.3 1.6-3.2.6-.8 1.3-1.5 2.2-2 .9-.5 2-.8 3.4-.8s2.5.3 3.4.8c.9.5 1.7 1.2 2.2 2 .6.8 1 1.7 1.4 2.6.4.9.9 2.2 1.5 3.8l12.7 31.3c1 2.4 1.5 4.1 1.5 5.2 0 1.1-.5 2.2-1.4 3.1-.9.9-2.1 1.4-3.4 1.4-.8 0-1.4-.1-2-.4-.6-.3-1-.7-1.4-1.1-.4-.5-.8-1.2-1.2-2.2-.5-1-.9-1.9-1.2-2.6zm-19.4-13.5h14.5l-7.3-20-7.2 20zm47-24.4v17l19.3-20.1c.9-1 1.7-1.7 2.4-2.1.7-.5 1.5-.7 2.6-.7 1.4 0 2.6.4 3.4 1.2.9.8 1.3 1.8 1.3 3 0 1.4-.7 2.9-2.2 4.3l-12 11.3 13.8 19.7c1 1.4 1.7 2.6 2.2 3.6.5 1 .7 2 .7 3 0 1.1-.4 2-1.3 2.8-.8.8-2 1.2-3.5 1.2-1.4 0-2.5-.3-3.3-.9-.9-.6-1.6-1.4-2.2-2.3-.6-1-1.1-1.9-1.6-2.6l-11.6-17.9-8 7.7v10c0 2-.5 3.5-1.4 4.5-.9 1-2.1 1.5-3.6 1.5-.8 0-1.6-.2-2.4-.7-.8-.4-1.4-1-1.8-1.8-.3-.6-.5-1.3-.6-2.1-.1-.8-.1-2-.1-3.5v-36c0-2 .4-3.5 1.3-4.5s2.1-1.5 3.6-1.5 2.7.5 3.6 1.5c.9.9 1.4 2.4 1.4 4.4zm40.6 38.2v-38.2c0-2 .5-3.5 1.4-4.5.9-1 2.1-1.5 3.5-1.5 1.5 0 2.7.5 3.6 1.5.9 1 1.4 2.5 1.4 4.5v38.2c0 2-.5 3.5-1.4 4.5-.9 1-2.1 1.5-3.6 1.5-1.4 0-2.6-.5-3.5-1.5-.9-1-1.4-2.5-1.4-4.5zm33.6-38.3l18.9 28.6v-28.8c0-1.9.4-3.3 1.2-4.2.8-.9 1.9-1.4 3.3-1.4s2.5.5 3.3 1.4c.8.9 1.2 2.3 1.2 4.2v38.1c0 4.3-1.8 6.4-5.3 6.4-.9 0-1.7-.1-2.4-.4-.7-.3-1.4-.7-2-1.2-.6-.6-1.2-1.2-1.7-1.9s-1.1-1.5-1.6-2.3l-18.4-28.2v28.4c0 1.9-.4 3.3-1.3 4.2s-2 1.4-3.3 1.4c-1.4 0-2.5-.5-3.3-1.4-.8-1-1.3-2.4-1.3-4.2v-37.4c0-1.6.2-2.8.5-3.7.4-1 1.1-1.8 2.1-2.4 1-.6 2-.9 3.1-.9.9 0 1.6.1 2.3.4.6.3 1.2.7 1.7 1.2s1 1.1 1.5 1.9c.5.6 1 1.4 1.5 2.2zm82.9 23.7v9.3c0 1.2-.1 2.2-.4 3-.2.7-.7 1.4-1.3 2-.6.6-1.5 1.2-2.5 1.7-2.9 1.6-5.8 2.7-8.5 3.5-2.7.7-5.7 1.1-8.9 1.1-3.7 0-7.1-.6-10.2-1.7-3.1-1.1-5.7-2.8-7.8-5-2.2-2.2-3.8-4.8-5-7.9-1.2-3.1-1.7-6.6-1.7-10.4 0-3.8.6-7.2 1.7-10.3 1.1-3.1 2.8-5.8 5-8s4.8-3.9 8-5c3.1-1.2 6.7-1.7 10.6-1.7 3.3 0 6.1.4 8.7 1.3s4.6 2 6.1 3.3c1.6 1.3 2.7 2.7 3.5 4.2.8 1.5 1.2 2.8 1.2 3.9 0 1.2-.5 2.3-1.4 3.2-.9.9-2 1.3-3.3 1.3-.7 0-1.4-.2-2-.5-.6-.3-1.2-.8-1.6-1.4-1.2-1.9-2.2-3.3-3.1-4.3-.8-1-2-1.8-3.4-2.4-1.4-.7-3.2-1-5.4-1-2.3 0-4.3.4-6.1 1.2-1.8.8-3.3 1.9-4.6 3.4-1.3 1.5-2.2 3.3-2.9 5.5-.7 2.2-1 4.6-1 7.2 0 5.7 1.3 10.1 3.9 13.1 2.6 3.1 6.3 4.6 10.9 4.6 2.3 0 4.4-.3 6.4-.9 2-.6 4-1.4 6.1-2.5v-7.9h-7.6c-1.8 0-3.2-.3-4.1-.8-.9-.6-1.4-1.5-1.4-2.8 0-1.1.4-2 1.2-2.7.8-.7 1.8-1.1 3.2-1.1h11.1c1.4 0 2.5.1 3.5.4.9.2 1.7.8 2.3 1.6.5.6.8 1.9.8 3.5zm47 19.7h-14.8c-2.1 0-3.7-.5-4.6-1.4-.9-1-1.4-2.5-1.4-4.6v-36.4c0-2.1.5-3.7 1.4-4.6.9-.9 2.5-1.4 4.5-1.4h15.7c2.3 0 4.3.1 6 .4 1.7.3 3.2.8 4.6 1.7 1.1.7 2.2 1.5 3 2.6.9 1 1.6 2.2 2 3.5s.7 2.6.7 4c0 4.8-2.4 8.4-7.3 10.6 6.4 2 9.6 6 9.6 11.8 0 2.7-.7 5.2-2.1 7.3-1.4 2.2-3.3 3.8-5.6 4.8-1.5.6-3.2 1.1-5.1 1.3-1.8.3-4 .4-6.6.4zm-10.9-41.1v12.5h9c2.4 0 4.3-.2 5.7-.7 1.3-.5 2.4-1.3 3.1-2.6.6-.9.8-2 .8-3.1 0-2.4-.9-4.1-2.6-4.9-1.7-.8-4.4-1.2-8-1.2h-8zm0 33.8h10.5c6.6 0 10-2.4 10-7.2 0-2.4-.9-4.2-2.6-5.3-1.7-1.1-4.3-1.7-7.7-1.7h-10.2v14.2"/><path d="M467.6 759.5c5 0 9.3 1 12.9 3.1 3.6 2 6.3 4.9 8.2 8.7 1.9 3.8 2.8 8.2 2.8 13.2 0 3.7-.5 7.2-1.5 10.2-1 3.1-2.5 5.7-4.6 8-2 2.2-4.5 4-7.5 5.2-3 1.2-6.3 1.8-10.1 1.8s-7.2-.6-10.2-1.8c-3-1.2-5.5-2.9-7.5-5.2-2-2.2-3.5-4.9-4.5-8-1-3.1-1.5-6.5-1.5-10.1 0-3.7.5-7.1 1.6-10.2 1.1-3.1 2.6-5.8 4.6-7.9 2-2.2 4.5-3.9 7.4-5 2.9-1.4 6.2-2 9.9-2zm14 25c0-3.5-.6-6.6-1.7-9.2-1.1-2.6-2.8-4.6-4.9-5.9-2.1-1.3-4.6-2-7.3-2-2 0-3.8.4-5.4 1.1-1.7.7-3.1 1.8-4.3 3.2-1.2 1.4-2.1 3.2-2.8 5.4-.7 2.2-1 4.7-1 7.4 0 2.8.3 5.2 1 7.5.7 2.2 1.7 4.1 2.9 5.5 1.3 1.5 2.7 2.6 4.4 3.3 1.6.7 3.4 1.1 5.4 1.1 2.5 0 4.8-.6 6.9-1.9 2.1-1.3 3.8-3.2 5-5.8 1.2-2.7 1.8-5.9 1.8-9.7zm31.5 3.6h-3.4v15.6c0 2-.5 3.6-1.4 4.5-.9 1-2.1 1.5-3.5 1.5-1.6 0-2.8-.5-3.6-1.5s-1.3-2.5-1.3-4.5v-37.3c0-2.1.5-3.6 1.4-4.6.9-.9 2.5-1.4 4.6-1.4h16c2.2 0 4.1.1 5.7.3 1.6.2 3 .6 4.2 1.1 1.5.6 2.9 1.6 4 2.7 1.2 1.2 2.1 2.6 2.7 4.1.6 1.6.9 3.2.9 5 0 3.6-1 6.5-3.1 8.7-2 2.2-5.1 3.7-9.3 4.6 1.7.9 3.4 2.3 5 4.1 1.6 1.8 3 3.7 4.2 5.8 1.2 2 2.2 3.9 2.9 5.5.7 1.6 1 2.8 1 3.4 0 .6-.2 1.3-.6 1.9-.4.6-1 1.1-1.7 1.5-.7.4-1.5.5-2.4.5-1.1 0-2-.3-2.8-.8-.7-.5-1.4-1.2-1.9-2s-1.3-2-2.2-3.5l-3.9-6.5c-1.4-2.4-2.7-4.2-3.8-5.5-1.1-1.3-2.2-2.1-3.4-2.6-1.1-.4-2.5-.6-4.3-.6zm5.6-20.4h-9.1v13.3h8.8c2.4 0 4.3-.2 6-.6 1.6-.4 2.8-1.1 3.7-2.1.8-1 1.3-2.3 1.3-4.1 0-1.3-.3-2.5-1-3.6-.7-1-1.6-1.8-2.8-2.3-1.2-.3-3.5-.6-6.9-.6zm36-7.3h12.8c3.3 0 6.2.3 8.6.9 2.4.6 4.5 1.8 6.5 3.5 5 4.3 7.6 10.9 7.6 19.7 0 2.9-.3 5.6-.8 8-.5 2.4-1.3 4.6-2.3 6.5-1.1 1.9-2.4 3.7-4.1 5.2-1.3 1.2-2.7 2.1-4.3 2.8-1.5.7-3.2 1.2-5 1.5-1.8.3-3.8.4-6 .4h-12.8c-1.8 0-3.1-.3-4-.8-.9-.5-1.5-1.3-1.8-2.3-.3-1-.4-2.3-.4-3.8v-35.5c0-2.1.5-3.6 1.4-4.6 1-1 2.5-1.5 4.6-1.5zm3.8 7.7v32.9h7.4c1.6 0 2.9 0 3.8-.1.9-.1 1.9-.3 2.9-.7 1-.4 1.9-.8 2.6-1.5 3.3-2.8 4.9-7.6 4.9-14.3 0-4.8-.7-8.4-2.2-10.7-1.4-2.4-3.2-3.9-5.3-4.5s-4.7-1-7.7-1h-6.4zm72.2-.2h-22.1v11.9h20.4c1.5 0 2.6.3 3.4 1 .7.7 1.1 1.6 1.1 2.7s-.4 2-1.1 2.7c-.7.7-1.9 1-3.4 1h-20.4v13.8h22.9c1.5 0 2.7.4 3.5 1.1.8.7 1.2 1.7 1.2 2.9 0 1.1-.4 2.1-1.2 2.8-.8.7-1.9 1.1-3.5 1.1h-26.7c-2.1 0-3.7-.5-4.6-1.4-.9-.9-1.4-2.5-1.4-4.6v-36.4c0-1.4.2-2.6.6-3.5.4-.9 1.1-1.5 2-2 .9-.4 2-.6 3.4-.6h25.9c1.6 0 2.7.3 3.5 1 .8.7 1.1 1.6 1.1 2.7s-.4 2.1-1.1 2.8c-.8.7-1.9 1-3.5 1zm26.4 20.2h-3.4v15.6c0 2-.5 3.6-1.4 4.5-.9 1-2.1 1.5-3.5 1.5-1.6 0-2.8-.5-3.6-1.5-.9-1-1.3-2.5-1.3-4.5v-37.3c0-2.1.5-3.6 1.4-4.6.9-.9 2.5-1.4 4.6-1.4h16c2.2 0 4.1.1 5.7.3 1.6.2 3 .6 4.2 1.1 1.5.6 2.9 1.6 4 2.7 1.2 1.2 2.1 2.6 2.7 4.1.6 1.6.9 3.2.9 5 0 3.6-1 6.5-3.1 8.7-2 2.2-5.1 3.7-9.3 4.6 1.7.9 3.4 2.3 5 4.1 1.6 1.8 3 3.7 4.2 5.8 1.2 2 2.2 3.9 2.9 5.5.7 1.6 1 2.8 1 3.4 0 .6-.2 1.3-.6 1.9-.4.6-1 1.1-1.7 1.5-.7.4-1.5.5-2.4.5-1.1 0-2-.3-2.8-.8-.7-.5-1.4-1.2-1.9-2s-1.3-2-2.2-3.5l-3.9-6.5c-1.4-2.4-2.7-4.2-3.8-5.5-1.1-1.3-2.2-2.1-3.4-2.6-1.1-.4-2.5-.6-4.3-.6zm5.6-20.4h-9.1v13.3h8.8c2.4 0 4.3-.2 6-.6 1.6-.4 2.8-1.1 3.7-2.1.8-1 1.3-2.3 1.3-4.1 0-1.3-.3-2.5-1-3.6-.7-1-1.6-1.8-2.8-2.3-1.2-.3-3.5-.6-6.9-.6zm66.7 26.6c0 2.9-.8 5.6-2.3 7.9-1.5 2.3-3.7 4.2-6.6 5.5s-6.4 2-10.3 2c-4.8 0-8.7-.9-11.8-2.7-2.2-1.3-4-3-5.4-5.2-1.4-2.2-2.1-4.3-2.1-6.3 0-1.2.4-2.2 1.2-3.1.8-.8 1.9-1.3 3.2-1.3 1 0 1.9.3 2.6 1 .7.7 1.3 1.6 1.8 2.9.6 1.5 1.3 2.8 2 3.9.7 1 1.7 1.9 3 2.6 1.3.7 3 1 5.1 1 2.9 0 5.3-.7 7.1-2 1.8-1.4 2.7-3 2.7-5.1 0-1.6-.5-2.9-1.5-3.9s-2.2-1.8-3.8-2.3c-1.6-.5-3.6-1.1-6.2-1.7-3.5-.8-6.4-1.8-8.7-2.9-2.3-1.1-4.2-2.6-5.6-4.5-1.4-1.9-2.1-4.2-2.1-7 0-2.7.7-5 2.2-7.1 1.5-2.1 3.6-3.7 6.3-4.8 2.8-1.1 6-1.7 9.7-1.7 3 0 5.5.4 7.7 1.1 2.2.7 4 1.7 5.4 2.9 1.4 1.2 2.5 2.5 3.1 3.9.7 1.3 1 2.7 1 3.9 0 1.2-.4 2.2-1.2 3.2-.8.9-1.9 1.4-3.1 1.4-1.1 0-2-.3-2.6-.8-.6-.6-1.2-1.5-1.9-2.8-.9-1.8-1.9-3.3-3.2-4.3-1.2-1-3.2-1.5-6-1.5-2.5 0-4.6.6-6.1 1.7-1.6 1.1-2.3 2.5-2.3 4 0 1 .3 1.8.8 2.5s1.3 1.3 2.2 1.8c.9.5 1.9.9 2.8 1.2.9.3 2.5.7 4.7 1.3 2.7.6 5.2 1.3 7.4 2.1s4.1 1.7 5.7 2.8c1.6 1.1 2.8 2.5 3.6 4.2 1.1 1.7 1.5 3.8 1.5 6.2z"/></g></svg>