<svg xmlns="http://www.w3.org/2000/svg" xmlns:xlink="http://www.w3.org/1999/xlink" width="132.83" height="128.755" viewBox="0 0 132.83 128.755"><defs><path id="a" d="M55.499 0h77.331v128.755h-77.331z"/></defs><clipPath id="b"><use xlink:href="#a" overflow="visible"/></clipPath><path clip-path="url(#b)" fill="#1A374D" d="M107.878 90.114c0 7.561-6.129 13.688-13.689 13.688-7.559 0-13.688-6.128-13.688-13.688 0-7.56 6.129-13.688 13.688-13.688 7.561.001 13.689 6.129 13.689 13.688m24.952 0c0-21.341-17.301-38.64-38.641-38.64-4.281 0-8.398.707-12.248 1.993 0 0-.006-39.629-.064-40.228l.002-.051c0-7.284-5.905-13.188-13.19-13.188-7.284 0-13.19 5.904-13.19 13.188 0 .405.046 78.582.046 78.582s.006 1.174.269 2.804c2.212 19.238 18.545 34.18 38.375 34.18 21.34.001 38.641-17.299 38.641-38.64"/><defs><path id="c" d="M0 0h77.331v128.755h-77.331z"/></defs><clipPath id="d"><use xlink:href="#c" overflow="visible"/></clipPath><path clip-path="url(#d)" d="M52.379 90.114c0 7.561-6.129 13.688-13.688 13.688-7.56 0-13.689-6.128-13.689-13.688 0-7.56 6.129-13.688 13.689-13.688 7.559.001 13.688 6.129 13.688 13.688m24.951 0c0-21.341-17.3-38.64-38.64-38.64-4.283 0-8.399.707-12.249 1.993 0 0-.005-39.629-.065-40.228l.003-.051c0-7.284-5.905-13.188-13.19-13.188-7.284.001-13.189 5.905-13.189 13.189 0 .405.046 78.582.046 78.582s.006 1.174.269 2.804c2.212 19.238 18.545 34.18 38.376 34.18 21.339 0 38.639-17.3 38.639-38.641"/></svg>